<svg xmlns="http://www.w3.org/2000/svg" width="500" height="500" style="shape-rendering:geometricPrecision;text-rendering:geometricPrecision;image-rendering:optimizeQuality;fill-rule:evenodd;clip-rule:evenodd">
  <path d="M366.5 28.5c.543.06.876.393 1 1a23718.046 23718.046 0 0 0-53 110.5 9965.6 9965.6 0 0 0 170 81A5795.598 5795.598 0 0 1 307 151.5l-141 234A11825.57 11825.57 0 0 1 293.5 146a29249.106 29249.106 0 0 0-207-96 193.841 193.841 0 0 1 21 7 22718.148 22718.148 0 0 0 193 76.5c2.128-.554 3.628-1.887 4.5-4 20.511-33.695 41.011-67.361 61.5-101Z"/>
</svg>
