<svg xmlns="http://www.w3.org/2000/svg" width="666.667" height="666.667" version="1.0" viewBox="0 0 500 500">
  <path d="M185 75.1c-23 2.2-39.8 9.9-45.4 20.7-3.2 6.2-3.8 10.8-2.1 17.4 3.1 11.7 9.9 22.3 22.5 34.9 17.7 17.8 39.9 32.9 71.9 49.1 16.8 8.5 19 9.1 19.1 5.6 0-.5-6.8-4.2-15-8.3-27.9-14-46.7-26.5-62.8-42-20-19.1-27.7-34.5-23.8-47.8 13.9-48 171.4-20.2 259 45.7 12.5 9.4 27.7 24.6 33.2 33.2 9.1 14.3 9.8 29.5 1.5 36.8-1.1 1.1-2.1 2.3-2.1 2.8 0 .4 3.7.8 8.3.8h8.3l1.8-3.7c6.5-13.7-1-32.2-21.3-52.3-46.5-46-145.2-86.9-224-93-14.9-1.1-16.7-1.1-29.1.1z"/>
</svg>
